<mxfile host="Electron" modified="2023-07-31T14:39:29.094Z" agent="Mozilla/5.0 (Windows NT 10.0; Win64; x64) AppleWebKit/537.36 (KHTML, like Gecko) draw.io/21.6.5 Chrome/114.0.5735.243 Electron/25.3.1 Safari/537.36" etag="E6-B2ICqQvocN-Cqaimy" version="21.6.5" type="device">
  <diagram name="Page-1" id="5SvmHuKXJBpUvMMgy40t">
    <mxGraphModel dx="880" dy="511" grid="1" gridSize="10" guides="1" tooltips="1" connect="1" arrows="1" fold="1" page="1" pageScale="1" pageWidth="1169" pageHeight="827" math="0" shadow="0">
      <root>
        <mxCell id="0" />
        <mxCell id="1" parent="0" />
        <mxCell id="BV5hf1cZSZyRzrNl-DUj-34" style="rounded=0;orthogonalLoop=1;jettySize=auto;html=1;exitX=1;exitY=0.5;exitDx=0;exitDy=0;entryX=0;entryY=0.5;entryDx=0;entryDy=0;endArrow=none;endFill=0;" edge="1" parent="1" source="BV5hf1cZSZyRzrNl-DUj-31" target="BV5hf1cZSZyRzrNl-DUj-32">
          <mxGeometry relative="1" as="geometry" />
        </mxCell>
        <mxCell id="BV5hf1cZSZyRzrNl-DUj-35" style="rounded=0;orthogonalLoop=1;jettySize=auto;html=1;exitX=1;exitY=0.5;exitDx=0;exitDy=0;entryX=0;entryY=0.5;entryDx=0;entryDy=0;endArrow=none;endFill=0;" edge="1" parent="1" source="BV5hf1cZSZyRzrNl-DUj-31" target="BV5hf1cZSZyRzrNl-DUj-33">
          <mxGeometry relative="1" as="geometry" />
        </mxCell>
        <mxCell id="BV5hf1cZSZyRzrNl-DUj-31" value="Account" style="html=1;whiteSpace=wrap;" vertex="1" parent="1">
          <mxGeometry y="40" width="80" height="40" as="geometry" />
        </mxCell>
        <mxCell id="BV5hf1cZSZyRzrNl-DUj-32" value="Person" style="html=1;whiteSpace=wrap;" vertex="1" parent="1">
          <mxGeometry x="200" width="80" height="40" as="geometry" />
        </mxCell>
        <mxCell id="BV5hf1cZSZyRzrNl-DUj-33" value="Corporation" style="html=1;whiteSpace=wrap;" vertex="1" parent="1">
          <mxGeometry x="200" y="80" width="80" height="40" as="geometry" />
        </mxCell>
        <mxCell id="BV5hf1cZSZyRzrNl-DUj-36" value="{xor}" style="endArrow=none;startArrow=none;endFill=0;startFill=0;endSize=8;html=1;verticalAlign=bottom;dashed=1;labelBackgroundColor=none;rounded=0;" edge="1" parent="1">
          <mxGeometry x="-0.0118" y="16" width="160" relative="1" as="geometry">
            <mxPoint x="140" y="44" as="sourcePoint" />
            <mxPoint x="150" y="84" as="targetPoint" />
            <mxPoint as="offset" />
          </mxGeometry>
        </mxCell>
      </root>
    </mxGraphModel>
  </diagram>
</mxfile>
